<svg xmlns="http://www.w3.org/2000/svg"
     width="1024" height="1024" viewBox="0 0 512 512"
     shape-rendering="geometricPrecision">
  <rect width="512" height="512" fill="#008FFF"/>

  <path d="M377 215V196
           C377 175.013 359.987 158 339 158
           H174
           C153.013 158 136 175.013 136 196
           V221
           C136 289.483 188.517 345 257 345
           C261.7 345 266.4 344.7 271 344.1"
        fill="none"
        stroke="#FFFFFF"
        stroke-width="28"
        stroke-linecap="round"
        stroke-linejoin="round"/>

  <rect x="242" y="110" width="28" height="61" rx="9" fill="#FFFFFF"/>

  <circle cx="211" cy="233" r="22" fill="#FFFFFF"/>
  <circle cx="301" cy="233" r="22" fill="#FFFFFF"/>

  <path d="M366.6 265.7
           C369.9 262.8 374.3 265.7 373.6 270
           L364.3 324.5
           L388.2 336.5
           C391.7 338.2 392.3 342.6 389.4 345.2
           L330.5 397.3
           C327.3 400.2 322.2 397.6 322.8 393.3
           L331.3 339.7
           L307.4 327.8
           C304 326.1 303.4 321.7 306.3 319.1
           Z"
        fill="#FFFFFF"/>
</svg>
